PathFileType	4	(X/Y/Z)	 s07c0403.trc
DataRate	CameraRate	NumFrames	NumMarkers	Units	OrigDataRate	OrigDataStartFrame	OrigNumFrames
200	200	6	48	mm	200	251	2000
Frame#	Time	racr			lacr			c7			jug			rlel			rdr			llel			ldr			s2			lic			ric			lasi			rasi			rpsi			lpsi			rgt			lgt			rth1			rth2			rth3			rth4			rlfc			rmfc			rsh1			rsh2			rsh3			rsh4			rlmal			rcal			rtoe			rmt5			lth1			lth2			lth4			lth3			llfc			lmfc			lsh1			lsh2			lsh3			lsh4			llmal			lcal			ltoe			lmt5			SBIKE			LBIKE			RBIKE			
		X1	Y1	Z1	X2	Y2	Z2	X3	Y3	Z3	X4	Y4	Z4	X5	Y5	Z5	X6	Y6	Z6	X7	Y7	Z7	X8	Y8	Z8	X9	Y9	Z9	X10	Y10	Z10	X11	Y11	Z11	X12	Y12	Z12	X13	Y13	Z13	X14	Y14	Z14	X15	Y15	Z15	X16	Y16	Z16	X17	Y17	Z17	X18	Y18	Z18	X19	Y19	Z19	X20	Y20	Z20	X21	Y21	Z21	X22	Y22	Z22	X23	Y23	Z23	X24	Y24	Z24	X25	Y25	Z25	X26	Y26	Z26	X27	Y27	Z27	X28	Y28	Z28	X29	Y29	Z29	X30	Y30	Z30	X31	Y31	Z31	X32	Y32	Z32	X33	Y33	Z33	X34	Y34	Z34	X35	Y35	Z35	X36	Y36	Z36	X37	Y37	Z37	X38	Y38	Z38	X39	Y39	Z39	X40	Y40	Z40	X41	Y41	Z41	X42	Y42	Z42	X43	Y43	Z43	X44	Y44	Z44	X45	Y45	Z45	X46	Y46	Z46	X47	Y47	Z47	X48	Y48	Z48	
251	1.2550	444.552576	1438.215706	-79.191977	426.675242	1430.140991	-367.384463	415.232268	1466.816348	-224.378249	383.005502	1327.197458	-221.562772	463.962695	1114.778524	59.109893	689.123212	938.015320	-36.878163	475.627102	1126.124509	-506.007545	696.909604	931.287152	-427.143192	-136.791093	1204.578327	-237.379359	24.474686	1247.171620	-359.482552	31.729785	1232.431038	-81.407871	60.077007	1172.157734	-349.043570	43.531361	1176.519124	-101.328425	-111.103589	1240.833300	-183.864109	-94.717535	1252.919809	-291.377100	-30.096644	1114.971714	-41.735115	-28.489984	1100.884463	-408.825863	108.753755	1044.609557	-39.708466	193.404304	1024.149513	-50.975814	258.459072	968.501122	-49.470206	207.534843	1054.368299	-67.789043	372.493538	884.586098	-82.959347	368.096089	866.320281	-180.354737	330.180106	746.599134	-60.092008	323.804813	658.910358	-80.140274	279.379054	584.921552	-75.393510	340.190152	658.504218	-116.160864	230.428828	458.609620	-77.583156	162.958541	419.854811	-106.353241	451.310830	387.300959	-118.916724	372.635093	356.157424	-48.727772	37.555210	998.687184	-414.839069	111.937912	951.418978	-419.096914	138.800544	975.099656	-410.794818	153.047422	872.101873	-415.633352	255.575837	720.251890	-384.531516	243.216371	705.114032	-285.629935	153.460774	609.389112	-405.388765	108.254692	538.762365	-384.452297	31.761080	491.911774	-394.099477	111.456461	540.314753	-342.645441	-69.369084	401.953465	-393.362548	-150.510552	384.636643	-360.250158	121.456145	286.444802	-354.047856	38.534526	286.020909	-418.906622	-258.689725	966.798223	-232.619959	-75.864840	83.367770	-437.318145	-82.377388	79.491764	-39.971513	
252	1.2600	444.442920	1438.295820	-79.101947	426.647677	1430.193616	-367.274883	415.154431	1466.951217	-224.240915	382.957394	1327.249951	-221.458419	463.950581	1114.824990	59.098363	689.138371	938.001372	-36.887120	475.597199	1126.161705	-505.927172	696.900226	931.285110	-427.121289	-136.853289	1204.590353	-237.380663	24.404842	1247.199347	-359.500037	31.644553	1232.433990	-81.387722	60.035841	1172.184510	-349.020465	43.458358	1176.551836	-101.303035	-111.163247	1240.842072	-183.872948	-94.783558	1252.928097	-291.369139	-30.149569	1114.971000	-41.732863	-28.534445	1100.892567	-408.822803	108.701444	1044.658526	-39.689406	193.344836	1024.189493	-50.921474	258.414438	968.548341	-49.436361	207.491814	1054.417312	-67.747106	372.418966	884.659243	-82.896747	368.082484	866.415949	-180.255696	330.153595	746.673175	-60.061013	323.746329	659.005446	-80.109533	279.354430	585.019281	-75.348596	340.183251	658.574090	-116.112332	230.428354	458.674996	-77.568883	162.948037	419.938024	-106.310506	451.301982	387.383358	-118.890665	372.631455	356.220303	-48.722479	37.487038	998.665367	-414.845320	111.859502	951.396868	-419.122920	138.736282	975.075846	-410.848306	152.957412	872.081694	-415.667850	255.536550	720.253692	-384.570124	243.164216	705.133114	-285.652443	153.416678	609.386548	-405.419433	108.214445	538.755697	-384.502144	31.758967	491.914631	-394.103892	111.452839	540.315633	-342.685143	-69.361660	401.891077	-393.355816	-150.489242	384.574404	-360.253232	121.466302	286.380848	-354.043154	38.543399	285.972278	-418.901454	-258.687216	966.803038	-232.631575	-75.866943	83.380572	-437.312544	-82.375725	79.495734	-39.948224	
253	1.2650	444.341753	1438.362657	-78.996495	426.641288	1430.251072	-367.212848	415.072060	1467.038795	-224.172355	382.925816	1327.335726	-221.342852	463.966094	1114.851486	59.059542	689.141703	937.986393	-36.907637	475.587164	1126.190473	-505.833435	696.891062	931.258043	-427.100846	-136.910381	1204.588507	-237.393379	24.328797	1247.212250	-359.502394	31.541623	1232.436850	-81.394838	59.987938	1172.223087	-349.023861	43.376985	1176.562251	-101.264271	-111.193504	1240.811075	-183.912691	-94.831494	1252.937014	-291.389171	-30.226449	1115.005444	-41.723712	-28.598726	1100.911218	-408.815252	108.618948	1044.735788	-39.670517	193.286395	1024.250463	-50.862718	258.366999	968.616332	-49.354810	207.430604	1054.463536	-67.711570	372.392648	884.742675	-82.827600	368.076550	866.511535	-180.207235	330.102102	746.783251	-60.021552	323.706517	659.068395	-80.070369	279.322648	585.119704	-75.327470	340.179126	658.657834	-116.076437	230.425787	458.765065	-77.565173	162.935403	419.993834	-106.316050	451.265548	387.464258	-118.870541	372.599065	356.318219	-48.710211	37.415046	998.664975	-414.885097	111.794425	951.392362	-419.182104	138.655322	975.080041	-410.920334	152.893842	872.046070	-415.699166	255.479876	720.259529	-384.614808	243.141519	705.137559	-285.708815	153.385601	609.392934	-405.446524	108.201733	538.740801	-384.523124	31.756776	491.894807	-394.124810	111.455508	540.282374	-342.691402	-69.329394	401.831596	-393.368358	-150.459083	384.512556	-360.239446	121.497953	286.253949	-354.068449	38.563516	285.902946	-418.886039	-258.679314	966.802632	-232.631272	-75.850823	83.345838	-437.309818	-82.403888	79.510626	-39.957251	
254	1.2700	444.255755	1438.430061	-78.912580	426.600986	1430.332999	-367.142323	414.994065	1467.105944	-224.067479	382.881768	1327.404014	-221.292070	463.976804	1114.863830	59.031006	689.133360	937.939849	-36.921230	475.601887	1126.209296	-505.730361	696.887951	931.218071	-427.087643	-136.967824	1204.587814	-237.382568	24.261517	1247.223551	-359.457583	31.435508	1232.441471	-81.375721	59.945752	1172.219283	-349.033230	43.308057	1176.575143	-101.225391	-111.249870	1240.818227	-183.928844	-94.901477	1252.942668	-291.392502	-30.274108	1115.024846	-41.717218	-28.649652	1100.929806	-408.837985	108.586801	1044.772369	-39.628073	193.240282	1024.300876	-50.822267	258.316830	968.722527	-49.300461	207.360865	1054.505960	-67.683784	372.359831	884.824165	-82.779564	368.073007	866.614264	-180.125348	330.060776	746.884685	-59.979182	323.696757	659.150302	-80.019137	279.289083	585.230882	-75.292869	340.143425	658.736140	-116.032745	230.409895	458.844390	-77.558717	162.925712	420.112165	-106.321042	451.245433	387.544531	-118.788558	372.389927	356.105009	-48.687679	37.350162	998.654303	-414.948410	111.730851	951.395945	-419.259026	138.592255	975.060681	-410.974343	152.809039	872.031343	-415.751283	255.431142	720.275322	-384.673259	243.079726	705.143819	-285.750028	153.350803	609.402723	-405.499794	108.197526	538.731577	-384.561706	31.748329	491.881222	-394.140825	111.455122	540.291013	-342.739465	-69.303654	401.756027	-393.361953	-150.411985	384.458495	-360.248243	121.532840	286.141753	-354.072496	38.581353	285.825729	-418.884589	-258.691569	966.797889	-232.611720	-75.859721	83.373355	-437.313602	-82.388029	79.496655	-39.951697	
255	1.2750	444.144194	1438.484212	-78.834065	426.548142	1430.371045	-367.093842	414.916857	1467.160852	-223.972407	382.818807	1327.439054	-221.217932	464.002275	1114.875588	59.010281	689.115873	937.883571	-36.928293	475.650243	1126.253587	-505.577893	696.869624	931.166962	-427.081434	-137.011278	1204.573419	-237.420522	24.211947	1247.262382	-359.461843	31.329086	1232.458063	-81.356484	59.897030	1172.260871	-349.033498	43.239765	1176.562136	-101.207934	-111.312883	1240.817027	-183.931191	-94.952780	1252.937698	-291.394296	-30.353186	1115.044795	-41.703335	-28.689932	1100.918917	-408.837065	108.517417	1044.809105	-39.609592	193.179260	1024.333996	-50.802518	258.245353	968.771294	-49.253760	207.313295	1054.555474	-67.655898	372.311487	884.936165	-82.716449	368.073776	866.687708	-180.054236	330.010392	746.979435	-59.930332	323.662098	659.222121	-79.985179	279.247813	585.333265	-75.276057	340.112684	658.808341	-115.987171	230.394350	458.921746	-77.559583	162.887914	420.185702	-106.318428	451.221137	387.626249	-118.765108	372.377523	356.692118	-48.483257	37.280296	998.648026	-414.996595	111.666688	951.373636	-419.312228	138.535329	975.047808	-411.004188	152.751176	872.008057	-415.782940	255.375459	720.296000	-384.734652	243.048852	705.147517	-285.812249	153.326335	609.406883	-405.545211	108.168151	538.718141	-384.617474	31.741632	491.865947	-394.179470	111.455471	540.255471	-342.786170	-69.264655	401.684837	-393.372127	-150.370002	384.395802	-360.264933	121.548484	286.043436	-354.082410	38.615685	285.695806	-418.891231	-258.690813	966.794595	-232.613850	-75.861678	83.368003	-437.325065	-82.392117	79.502919	-39.955660	
256	1.2800	444.023848	1438.544356	-78.727409	426.506269	1430.422776	-367.010463	414.844313	1467.224276	-223.852938	382.772243	1327.476378	-221.119589	464.046077	1114.860664	58.961865	689.099570	937.787406	-36.945853	475.708452	1126.292501	-505.440954	696.842481	931.090822	-427.064458	-137.074155	1204.557340	-237.423084	24.154689	1247.278558	-359.444666	31.208915	1232.449258	-81.348685	59.858097	1172.268145	-349.017736	43.165263	1176.580293	-101.177775	-111.378125	1240.810356	-183.945999	-95.013501	1252.927784	-291.416125	-30.427947	1115.062747	-41.708842	-28.757260	1100.928613	-408.846897	108.429135	1044.845326	-39.569510	193.134296	1024.392789	-50.757241	258.210127	968.836454	-49.207708	207.253076	1054.604536	-67.674066	372.284818	884.999573	-82.663208	368.030089	870.053939	-187.700674	329.950554	747.075672	-59.874936	323.622809	659.285749	-79.933468	279.221471	585.415512	-75.258187	340.097130	658.887670	-115.936225	230.375004	459.006353	-77.546434	162.873866	420.294227	-106.324574	451.204436	387.725555	-118.770845	372.475312	356.633083	-48.578524	37.230006	998.645818	-415.039901	111.603512	951.367407	-419.370017	138.478046	975.049793	-411.062520	152.693774	871.998229	-415.828119	255.345866	720.317333	-384.786786	243.014128	705.143293	-285.862781	153.273483	609.412191	-405.592243	108.175744	538.723332	-384.681549	31.748218	491.846512	-394.218772	111.451548	540.248460	-342.829389	-69.213266	401.627163	-393.400108	-150.360277	384.348046	-360.272778	121.576819	285.935596	-354.096103	38.630391	285.592773	-418.907227	-258.691456	966.786145	-232.620205	-75.868461	83.362187	-437.311368	-82.379977	79.481847	-39.953613	
